<svg id="Capa_1" enable-background="new 0 0 512 512" height="512" viewBox="0 0 512 512" width="512" xmlns="http://www.w3.org/2000/svg"><g><g><path clip-rule="evenodd" d="m479.901 10h-447.83c-12.142 0-22.071 9.921-22.071 22.053v83.167h491.972l.028-83.167c0-12.132-9.957-22.053-22.099-22.053z" fill="#ff7b79" fill-rule="evenodd"/></g><g><path clip-rule="evenodd" d="m501.972 115.22h-491.972v364.699c0 12.132 9.929 22.081 22.071 22.081h447.83c12.142 0 22.099-9.949 22.099-22.081zm-305.504 85.52 60.369 36.311c4.142-6.831 11.66-11.423 20.255-11.423 13.05 0 23.66 10.573 23.66 23.64 0 13.039-10.61 23.612-23.66 23.612v71.432c13.05 0 23.66 10.573 23.66 23.641 0 13.039-10.61 23.612-23.66 23.612-8.596 0-16.113-4.564-20.255-11.423l-60.369 36.311c2.156 3.572 3.404 7.738 3.404 12.217 0 13.039-10.582 23.612-23.66 23.612-13.05 0-23.66-10.573-23.66-23.612 0-4.479 1.248-8.646 3.404-12.217l-60.34-36.311c-4.142 6.86-11.688 11.423-20.284 11.423-13.05 0-23.631-10.573-23.631-23.612 0-13.067 10.582-23.641 23.631-23.641v-71.432c-13.05 0-23.631-10.573-23.631-23.612 0-13.067 10.582-23.64 23.631-23.64 8.596 0 16.142 4.592 20.284 11.423l60.34-36.311c-2.156-3.572-3.404-7.738-3.404-12.189 0-13.067 10.61-23.64 23.66-23.64 13.078 0 23.66 10.573 23.66 23.64 0 4.45-1.248 8.617-3.404 12.189zm143.915 73.331 119.915 42.377-62.298 15.193-15.234 62.248z" fill="#fff" fill-rule="evenodd"/></g><g><path clip-rule="evenodd" d="m196.468 200.74c-4.142 6.86-11.66 11.452-20.255 11.452-8.596 0-16.113-4.592-20.255-11.452l-60.34 36.311c2.128 3.572 3.376 7.738 3.376 12.217 0 4.45-1.248 8.617-3.376 12.189l60.34 36.311c4.142-6.86 11.66-11.423 20.255-11.423 8.596 0 16.113 4.564 20.255 11.423l60.369-36.311c-2.156-3.572-3.404-7.738-3.404-12.189 0-4.479 1.248-8.646 3.404-12.217z" fill="#beece1" fill-rule="evenodd"/></g><g><path clip-rule="evenodd" d="m176.213 164.91c-13.05 0-23.66 10.573-23.66 23.64 0 4.45 1.248 8.617 3.404 12.189 4.142 6.86 11.66 11.452 20.255 11.452 8.596 0 16.113-4.592 20.255-11.452 2.156-3.572 3.404-7.738 3.404-12.189.001-13.067-10.58-23.64-23.658-23.64z" fill="#bfdbff" fill-rule="evenodd"/></g><g><path clip-rule="evenodd" d="m75.333 225.627c-13.05 0-23.631 10.573-23.631 23.64 0 13.039 10.582 23.612 23.631 23.612 8.596 0 16.142-4.564 20.284-11.423 2.128-3.572 3.376-7.738 3.376-12.189 0-4.479-1.248-8.646-3.376-12.217-4.142-6.831-11.688-11.423-20.284-11.423z" fill="#bfdbff" fill-rule="evenodd"/></g><g><path clip-rule="evenodd" d="m95.617 261.457c-4.142 6.86-11.688 11.423-20.284 11.423v71.432c13.078 0 23.66 10.573 23.66 23.641 0 4.45-1.248 8.617-3.376 12.189l60.34 36.311c4.142-6.831 11.66-11.423 20.255-11.423v-71.432c-13.05 0-23.66-10.573-23.66-23.612 0-4.479 1.248-8.646 3.404-12.217z" fill="#7dd9c2" fill-rule="evenodd"/></g><g><path clip-rule="evenodd" d="m75.333 344.312c-13.05 0-23.631 10.573-23.631 23.641 0 13.039 10.582 23.612 23.631 23.612 8.596 0 16.142-4.564 20.284-11.423 2.128-3.572 3.376-7.738 3.376-12.189 0-13.068-10.582-23.641-23.66-23.641z" fill="#bfdbff" fill-rule="evenodd"/></g><g><path clip-rule="evenodd" d="m176.213 286.344c-8.596 0-16.113 4.564-20.255 11.423-2.156 3.572-3.404 7.738-3.404 12.217 0 13.039 10.61 23.612 23.66 23.612 13.078 0 23.66-10.573 23.66-23.612 0-4.479-1.248-8.646-3.404-12.217-4.144-6.859-11.661-11.423-20.257-11.423z" fill="#bfdbff" fill-rule="evenodd"/></g><g><path clip-rule="evenodd" d="m176.213 405.029c-8.596 0-16.113 4.592-20.255 11.423-2.156 3.572-3.404 7.738-3.404 12.217 0 13.039 10.61 23.612 23.66 23.612 13.078 0 23.66-10.573 23.66-23.612 0-4.479-1.248-8.646-3.404-12.217-4.144-6.831-11.661-11.423-20.257-11.423z" fill="#bfdbff" fill-rule="evenodd"/></g><g><path clip-rule="evenodd" d="m256.837 261.457-60.369 36.311c2.156 3.572 3.404 7.738 3.404 12.217 0 13.039-10.582 23.612-23.66 23.612v71.432c8.596 0 16.113 4.592 20.255 11.423l60.369-36.311c-2.156-3.572-3.404-7.738-3.404-12.189 0-13.067 10.61-23.641 23.66-23.641v-71.431c-8.596 0-16.113-4.564-20.255-11.423z" fill="#7dd9c2" fill-rule="evenodd"/></g><g><path clip-rule="evenodd" d="m277.092 344.312c-13.05 0-23.66 10.573-23.66 23.641 0 4.45 1.248 8.617 3.404 12.189 4.142 6.86 11.66 11.423 20.255 11.423 13.05 0 23.66-10.573 23.66-23.612.001-13.068-10.609-23.641-23.659-23.641z" fill="#bfdbff" fill-rule="evenodd"/></g><g><path clip-rule="evenodd" d="m277.092 225.627c-8.596 0-16.113 4.592-20.255 11.423-2.156 3.572-3.404 7.738-3.404 12.217 0 4.45 1.248 8.617 3.404 12.189 4.142 6.86 11.66 11.423 20.255 11.423 13.05 0 23.66-10.573 23.66-23.612 0-13.067-10.61-23.64-23.66-23.64z" fill="#bfdbff" fill-rule="evenodd"/></g><g><path clip-rule="evenodd" d="m460.298 316.448-119.915-42.377 42.383 119.818 15.234-62.248z" fill="#80b6ff" fill-rule="evenodd"/></g><g><path d="m41.702 367.952c0 18.534 15.087 33.612 33.631 33.612 8.572 0 16.401-3.221 22.35-8.509l45.845 27.588c-.633 2.573-.975 5.259-.975 8.025 0 18.534 15.1 33.612 33.66 33.612s33.66-15.079 33.66-33.612c0-2.765-.342-5.451-.975-8.023l45.855-27.581c5.948 5.282 13.773 8.5 22.34 8.5 18.56 0 33.66-15.079 33.66-33.612 0-15.071-9.967-27.859-23.66-32.125v-54.461c13.692-4.263 23.66-17.04 23.66-32.098 0-18.549-15.1-33.641-33.66-33.641-8.565 0-16.388 3.219-22.335 8.503l-45.854-27.581c.629-2.565.969-5.243.969-7.999 0-18.549-15.1-33.641-33.66-33.641s-33.66 15.091-33.66 33.641c0 2.757.341 5.435.97 8.001l-45.844 27.588c-5.948-5.289-13.776-8.512-22.345-8.512-18.544 0-33.631 15.091-33.631 33.641 0 15.055 9.955 27.829 23.631 32.095v54.467c-13.677 4.269-23.632 17.055-23.632 32.122zm134.511 74.329c-7.532 0-13.66-6.106-13.66-13.612 0-7.521 6.128-13.64 13.66-13.64s13.66 6.119 13.66 13.64c0 7.506-6.128 13.612-13.66 13.612zm-13.66-132.296c0-7.521 6.128-13.641 13.66-13.641s13.66 6.119 13.66 13.641c0 7.506-6.128 13.612-13.66 13.612s-13.66-6.106-13.66-13.612zm128.199 57.967c0 7.506-6.128 13.612-13.66 13.612s-13.66-6.106-13.66-13.612c0-7.521 6.128-13.641 13.66-13.641s13.66 6.12 13.66 13.641zm-13.66-132.325c7.532 0 13.66 6.119 13.66 13.641 0 7.505-6.128 13.612-13.66 13.612s-13.66-6.106-13.66-13.612c.001-7.521 6.129-13.641 13.66-13.641zm-10 45.739v54.461c-13.692 4.266-23.66 17.054-23.66 32.125 0 2.756.341 5.433.971 7.998l-45.855 27.581c-3.53-3.137-7.719-5.549-12.335-6.987v-54.461c13.692-4.263 23.66-17.04 23.66-32.098 0-2.765-.343-5.451-.975-8.024l45.855-27.581c3.53 3.136 7.721 5.548 12.339 6.986zm-90.879-106.456c7.532 0 13.66 6.119 13.66 13.641s-6.128 13.641-13.66 13.641-13.66-6.119-13.66-13.641 6.128-13.641 13.66-13.641zm-22.353 38.763c5.949 5.293 13.78 8.518 22.353 8.518 8.574 0 16.405-3.225 22.354-8.52l45.84 27.572c-.633 2.573-.975 5.259-.975 8.024 0 2.756.341 5.433.971 7.998l-45.855 27.581c-5.947-5.284-13.77-8.503-22.335-8.503-8.564 0-16.387 3.218-22.334 8.501l-45.854-27.594c.627-2.561.967-5.233.967-7.984 0-2.76-.341-5.441-.972-8.01zm-56.177 60.698 45.845 27.588c-.633 2.573-.975 5.26-.975 8.025 0 15.058 9.967 27.835 23.66 32.098v54.461c-4.616 1.438-8.804 3.85-12.334 6.986l-45.854-27.594c.627-2.561.968-5.233.968-7.984 0-15.071-9.967-27.859-23.659-32.125v-54.462c4.622-1.438 8.816-3.852 12.349-6.993zm-35.981-25.103c0-7.521 6.115-13.641 13.631-13.641 7.532 0 13.659 6.119 13.659 13.641 0 7.505-6.127 13.612-13.659 13.612-7.516 0-13.631-6.107-13.631-13.612zm13.631 105.044c7.532 0 13.659 6.119 13.659 13.641 0 7.506-6.127 13.612-13.659 13.612-7.516 0-13.631-6.106-13.631-13.612 0-7.522 6.115-13.641 13.631-13.641z"/><path d="m479.901 0h-289.561c-5.523 0-10 4.477-10 10s4.477 10 10 10h289.561c6.671 0 12.099 5.407 12.099 12.053v73.167h-472v-73.167c0-6.646 5.415-12.053 12.071-12.053h68.397c5.523 0 10-4.477 10-10s-4.477-10-10-10h-68.397c-17.684 0-32.071 14.379-32.071 32.053v447.865c0 17.69 14.387 32.082 32.071 32.082h447.83c17.7 0 32.099-14.392 32.099-32.082v-447.865c0-17.674-14.399-32.053-32.099-32.053zm12.099 479.918c0 6.662-5.428 12.082-12.099 12.082h-447.83c-6.656 0-12.071-5.42-12.071-12.082v-354.698h472z"/><path d="m397.73 62.61c0-5.523-4.477-10-10-10h-.057c-5.523 0-9.972 4.477-9.972 10s4.505 10 10.028 10 10.001-4.477 10.001-10z"/><path d="m451.716 62.61c0-5.523-4.477-10-10-10h-.057c-5.523 0-9.972 4.477-9.972 10s4.505 10 10.028 10 10.001-4.477 10.001-10z"/><path d="m343.773 62.61c0-5.523-4.477-10-10-10h-.057c-5.523 0-9.972 4.477-9.972 10s4.505 10 10.028 10 10.001-4.477 10.001-10z"/><path d="m60.284 62.61c0 5.523 4.477 10 10 10h150.241c5.523 0 10-4.477 10-10s-4.477-10-10-10h-150.241c-5.523 0-10 4.477-10 10z"/><path d="m373.338 397.224c1.418 4.009 5.208 6.665 9.424 6.665.167 0 .335-.004.503-.013 4.416-.221 8.163-3.315 9.214-7.61l13.79-56.348 56.398-13.754c4.297-1.048 7.396-4.795 7.618-9.213.222-4.417-2.484-8.457-6.655-9.931l-119.915-42.377c-3.635-1.285-7.681-.367-10.404 2.359-2.724 2.725-3.64 6.772-2.355 10.405zm51.969-82.536-29.676 7.237c-3.625.884-6.457 3.713-7.344 7.338l-7.268 29.698-24.226-68.486z"/><path d="m145.404 20h.028c5.523 0 9.986-4.477 9.986-10s-4.491-10-10.014-10-10 4.477-10 10 4.477 10 10 10z"/></g></g></svg>