<svg id="color" enable-background="new 0 0 24 24" height="512" viewBox="0 0 24 24" width="512" xmlns="http://www.w3.org/2000/svg"><path d="m12 23c-6.066 0-11-4.935-11-11s4.934-11 11-11 11 4.935 11 11-4.934 11-11 11z" fill="#fafafa"/><path d="m12 0c-6.617 0-12 5.383-12 12s5.383 12 12 12 12-5.383 12-12-5.383-12-12-12zm8.287 17.591c-.819-.373-1.739-.682-2.726-.929.225-1.132.366-2.362.415-3.662h3.973c-.168 1.688-.758 3.255-1.662 4.591zm-18.236-4.591h3.973c.049 1.3.19 2.53.415 3.663-.987.247-1.907.556-2.726.929-.904-1.337-1.494-2.904-1.662-4.592zm1.662-6.591c.819.373 1.739.681 2.726.928-.225 1.133-.366 2.363-.415 3.663h-3.973c.168-1.688.758-3.255 1.662-4.591zm7.287-.434c-.705-.03-1.392-.095-2.059-.186.552-1.633 1.289-2.83 2.059-3.404zm0 1.999v3.026h-2.977c.051-1.171.193-2.266.398-3.266.834.124 1.698.205 2.579.24zm0 5.026v3.026c-.881.035-1.745.116-2.579.24-.205-1-.347-2.095-.398-3.266zm0 5.025v3.59c-.77-.573-1.507-1.771-2.059-3.403.667-.092 1.354-.157 2.059-.187zm2 0c.704.03 1.392.095 2.059.186-.552 1.633-1.289 2.83-2.059 3.403zm0-1.999v-3.026h2.977c-.051 1.171-.193 2.266-.398 3.266-.834-.125-1.698-.205-2.579-.24zm0-5.026v-3.026c.881-.035 1.745-.116 2.579-.24.205 1 .347 2.095.398 3.266zm0-5.025v-3.59c.77.573 1.507 1.771 2.059 3.403-.667.092-1.355.157-2.059.187zm2.938-3.164c1.119.481 2.129 1.164 2.994 1.998-.577.23-1.201.429-1.867.595-.31-.977-.689-1.849-1.127-2.593zm-9.003 2.593c-.666-.166-1.29-.365-1.867-.595.865-.834 1.875-1.517 2.994-1.998-.438.744-.817 1.616-1.127 2.593zm0 13.192c.31.978.689 1.85 1.127 2.593-1.119-.481-2.129-1.164-2.994-1.998.576-.23 1.201-.429 1.867-.595zm10.13 0c.666.166 1.29.365 1.867.595-.865.834-1.875 1.517-2.994 1.998.438-.744.817-1.616 1.127-2.593zm.911-7.596c-.049-1.3-.19-2.53-.415-3.663.987-.247 1.907-.556 2.726-.929.905 1.337 1.494 2.903 1.662 4.591h-3.973z" fill="#cfd8dc"/><path d="m6.935 18.596c-.666.166-1.29.365-1.867.595.865.834 1.875 1.517 2.994 1.998-.438-.744-.817-1.616-1.127-2.593zm4.065-.571c-.705.03-1.392.095-2.059.187.552 1.632 1.289 2.83 2.059 3.403zm-4.977-5.025h-3.972c.168 1.688.758 3.255 1.663 4.591.818-.373 1.739-.682 2.726-.929-.227-1.132-.367-2.362-.417-3.662zm4.977 0h-2.977c.051 1.171.193 2.266.398 3.266.834-.125 1.697-.205 2.579-.24zm-2.579-5.266c-.206 1-.347 2.095-.398 3.266h2.977v-3.026c-.881-.035-1.745-.116-2.579-.24zm-4.708-1.325c-.904 1.336-1.494 2.903-1.662 4.591h3.973c.049-1.3.19-2.53.416-3.663-.988-.247-1.908-.555-2.727-.928zm4.349-3.598c-1.119.481-2.129 1.164-2.994 1.998.577.23 1.201.429 1.867.595.31-.977.689-1.849 1.127-2.593zm2.938-.426c-.77.574-1.507 1.771-2.059 3.403.667.092 1.354.157 2.059.187z" fill="#dadada"/><path d="m8.062 21.189c-1.119-.481-2.129-1.164-2.994-1.998.577-.23 1.201-.429 1.867-.595.31.977.689 1.849 1.127 2.593zm2.938.426c-.77-.574-1.507-1.771-2.059-3.403.667-.092 1.354-.156 2.059-.187zm-7.287-4.024c-.904-1.336-1.494-2.903-1.662-4.591h3.973c.049 1.3.19 2.53.416 3.663-.988.247-1.908.555-2.727.928zm4.708-1.325c-.206-1-.347-2.095-.398-3.266h2.977v3.026c-.881.035-1.745.116-2.579.24zm-.398-5.266c.051-1.171.193-2.266.398-3.266.834.124 1.698.205 2.579.24v3.026zm-5.972 0c.168-1.688.758-3.255 1.663-4.591.818.373 1.738.681 2.725.928-.226 1.133-.366 2.363-.416 3.663zm4.884-5.596c-.666-.166-1.29-.365-1.867-.595.865-.834 1.875-1.517 2.994-1.998-.438.744-.817 1.616-1.127 2.593zm4.065.571c-.705-.03-1.392-.095-2.059-.187.552-1.632 1.289-2.829 2.059-3.403zm1-5.975c-6.617 0-12 5.383-12 12s5.383 12 12 12z" fill="#b4bcc0"/><path d="m13.735 23.795-4.5-4.25c-.15-.141-.235-.339-.235-.545s.085-.404.235-.545l4.5-4.25c.476-.449 1.265-.114 1.265.545v2.25h5.25c1.24 0 2.25-1.009 2.25-2.25 0-.414.336-.75.75-.75s.75.336.75.75v1.5c0 2.619-2.131 4.75-4.75 4.75h-4.25v2.25c0 .662-.792.992-1.265.545z" fill="#2196f3"/><path d="m23.121 19h-14.121c0 .207.085.404.235.545l4.5 4.25c.15.142.331.205.509.205.386 0 .756-.299.756-.75v-2.25h4.25c1.595 0 3.009-.79 3.871-2z" fill="#1d83d4"/></svg>