<?xml version="1.0" encoding="UTF-8" standalone="no"?>
<svg width="211.667mm" height="52.9167mm"
 xmlns="http://www.w3.org/2000/svg" xmlns:xlink="http://www.w3.org/1999/xlink"  version="1.2" baseProfile="tiny">
<desc>Created by EvoPdf</desc>
<defs>
</defs>
<g fill="none" stroke="black" stroke-width="1" fill-rule="evenodd" stroke-linecap="square" stroke-linejoin="bevel" >

<g fill="#000000" fill-opacity="1" stroke="#000000" stroke-opacity="1" stroke-width="1" stroke-linecap="square" stroke-linejoin="miter" stroke-miterlimit="2" transform="matrix(1,0,0,1,0,0)"
>
</g>

<g fill="#000000" fill-opacity="1" stroke="#000000" stroke-opacity="1" stroke-width="1" stroke-linecap="square" stroke-linejoin="miter" stroke-miterlimit="2" transform="matrix(1,0,0,1,0,0)"
>
</g>

<g fill="#000000" fill-opacity="1" stroke="#000000" stroke-opacity="1" stroke-width="1" stroke-linecap="square" stroke-linejoin="miter" stroke-miterlimit="2" transform="matrix(1,0,0,1,0,0)"
>
</g>

<g fill="#000000" fill-opacity="1" stroke="#000000" stroke-opacity="1" stroke-width="1" stroke-linecap="square" stroke-linejoin="miter" stroke-miterlimit="2" transform="matrix(1,0,0,1,0,0)"
>
</g>

<g fill="#000000" fill-opacity="1" stroke="#000000" stroke-opacity="1" stroke-width="1" stroke-linecap="square" stroke-linejoin="miter" stroke-miterlimit="2" transform="matrix(3.08152,0,0,3.08152,8,56.3229)"
>
</g>

<g fill="#000000" fill-opacity="1" stroke="none" transform="matrix(3.08152,0,0,3.08152,-544.085,-752.114)"
>
<path vector-effect="none" fill-rule="nonzero" d="M229.88,262.35 C220.618,262.35 213.11,269.858 213.11,279.12 C213.11,288.382 220.618,295.89 229.88,295.89 C239.142,295.89 246.65,288.382 246.65,279.12 C246.65,269.858 239.142,262.35 229.88,262.35 M229.88,287.43 C226.482,287.594 223.327,285.672 221.913,282.579 C220.499,279.485 221.11,275.842 223.457,273.38 C225.804,270.917 229.413,270.131 232.572,271.395 C235.73,272.659 237.8,275.718 237.8,279.12 C237.906,283.601 234.361,287.321 229.88,287.43 "/>
</g>

<g fill="#000000" fill-opacity="1" stroke="#000000" stroke-opacity="1" stroke-width="1" stroke-linecap="square" stroke-linejoin="miter" stroke-miterlimit="2" transform="matrix(3.08152,0,0,3.08152,8,56.3229)"
>
</g>

<g fill="#000000" fill-opacity="1" stroke="none" transform="matrix(3.08152,0,0,3.08152,8,56.3229)"
>
<path vector-effect="none" fill-rule="nonzero" d="M0,0.66 L16.97,33.38 L33.95,0.66 L24.05,0.66 L17.07,14.31 L10.09,0.66 L0,0.66"/>
</g>

<g fill="#000000" fill-opacity="1" stroke="#000000" stroke-opacity="1" stroke-width="1" stroke-linecap="square" stroke-linejoin="miter" stroke-miterlimit="2" transform="matrix(3.08152,0,0,3.08152,8,56.3229)"
>
</g>

<g fill="#000000" fill-opacity="1" stroke="none" transform="matrix(3.08152,0,0,3.08152,8,56.3229)"
>
<path vector-effect="none" fill-rule="evenodd" d="M208.65,0.66 L217.65,0.66 L217.65,32.92 L208.65,32.92 L208.65,0.66"/>
</g>

<g fill="#000000" fill-opacity="1" stroke="#000000" stroke-opacity="1" stroke-width="1" stroke-linecap="square" stroke-linejoin="miter" stroke-miterlimit="2" transform="matrix(3.08152,0,0,3.08152,8,56.3229)"
>
</g>

<g fill="#000000" fill-opacity="1" stroke="none" transform="matrix(3.08152,0,0,3.08152,8,56.3229)"
>
<path vector-effect="none" fill-rule="nonzero" d="M170.15,8.74 L170.15,0.66 L145.41,0.66 L145.41,32.92 L170.15,32.92 L170.15,24.84 L154.82,24.84 L154.82,20.68 L169.01,20.68 L169.01,12.91 L154.82,12.91 L154.82,8.74 L170.15,8.74"/>
</g>

<g fill="#000000" fill-opacity="1" stroke="#000000" stroke-opacity="1" stroke-width="1" stroke-linecap="square" stroke-linejoin="miter" stroke-miterlimit="2" transform="matrix(3.08152,0,0,3.08152,8,56.3229)"
>
</g>

<g fill="#000000" fill-opacity="1" stroke="none" transform="matrix(3.08152,0,0,3.08152,-544.085,-752.114)"
>
<path vector-effect="none" fill-rule="nonzero" d="M367.39,263 L353.84,263 L353.84,295.27 L367.39,295.27 C373.25,295.416 378.729,292.373 381.702,287.321 C384.675,282.268 384.675,276.001 381.702,270.949 C378.729,265.897 373.25,262.854 367.39,263 M366.68,287.09 L362.94,287.09 L362.94,271.19 L366.68,271.19 C369.724,270.866 372.686,272.307 374.31,274.903 C375.933,277.498 375.933,280.792 374.31,283.388 C372.686,285.983 369.724,287.424 366.68,287.1 "/>
</g>

<g fill="#000000" fill-opacity="1" stroke="#000000" stroke-opacity="1" stroke-width="1" stroke-linecap="square" stroke-linejoin="miter" stroke-miterlimit="2" transform="matrix(3.08152,0,0,3.08152,8,56.3229)"
>
</g>

<g fill="#000000" fill-opacity="1" stroke="none" transform="matrix(3.08152,0,0,3.08152,8,56.3229)"
>
<path vector-effect="none" fill-rule="nonzero" d="M131.07,14.94 L131.07,32.92 L140.17,32.92 L140.17,0.66 L128.9,0.66 L121.92,14.12 L114.94,0.66 L103.67,0.66 L103.67,32.92 L112.57,32.92 L112.57,14.94 L121.82,32.77 L131.07,14.94"/>
</g>

<g fill="#000000" fill-opacity="1" stroke="#000000" stroke-opacity="1" stroke-width="1" stroke-linecap="square" stroke-linejoin="miter" stroke-miterlimit="2" transform="matrix(3.08152,0,0,3.08152,8,56.3229)"
>
</g>

<g fill="#000000" fill-opacity="1" stroke="none" transform="matrix(3.08152,0,0,3.08152,8,56.3229)"
>
<path vector-effect="none" fill-rule="nonzero" d="M83.11,24.43 L88.78,32.93 L99.44,32.93 L88.44,16.79 L99.34,0.66 L88.88,0.66 L83.21,9.16 L83.31,9.16 L77.63,0.66 L67.08,0.66 L77.98,16.79 L66.98,32.93 L77.43,32.93 L83.11,24.43"/>
</g>

<g fill="#000000" fill-opacity="1" stroke="#000000" stroke-opacity="1" stroke-width="1" stroke-linecap="square" stroke-linejoin="miter" stroke-miterlimit="2" transform="matrix(3.08152,0,0,3.08152,8,56.3229)"
>
</g>

<g fill="#000000" fill-opacity="1" stroke="none" transform="matrix(3.08152,0,0,3.08152,-544.085,-752.114)"
>
<path vector-effect="none" fill-rule="nonzero" d="M412.55,284.07 L416.55,272.54 L420.55,284.07 L412.55,284.07 M422,263 L411.38,263 L399.76,295.27 L408.76,295.27 L410.17,291.12 L423,291.12 L424.4,295.27 L433.61,295.27 L422,263"/>
</g>

<g fill="#000000" fill-opacity="1" stroke="#000000" stroke-opacity="1" stroke-width="1" stroke-linecap="square" stroke-linejoin="miter" stroke-miterlimit="2" transform="matrix(3.08152,0,0,3.08152,8,56.3229)"
>
</g>

<g fill="#000000" fill-opacity="1" stroke="#000000" stroke-opacity="1" stroke-width="1" stroke-linecap="square" stroke-linejoin="miter" stroke-miterlimit="2" transform="matrix(3.08152,0,0,3.08152,8,56.3229)"
>
</g>

<g fill="#000000" fill-opacity="1" stroke="#000000" stroke-opacity="1" stroke-width="1" stroke-linecap="square" stroke-linejoin="miter" stroke-miterlimit="2" transform="matrix(1,0,0,1,0,0)"
>
</g>

<g fill="#000000" fill-opacity="1" stroke="#000000" stroke-opacity="1" stroke-width="1" stroke-linecap="square" stroke-linejoin="miter" stroke-miterlimit="2" transform="matrix(1,0,0,1,0,0)"
>
</g>

<g fill="#000000" fill-opacity="1" stroke="#000000" stroke-opacity="1" stroke-width="1" stroke-linecap="square" stroke-linejoin="miter" stroke-miterlimit="2" transform="matrix(1,0,0,1,0,0)"
>
</g>

<g fill="#000000" fill-opacity="1" stroke="#000000" stroke-opacity="1" stroke-width="1" stroke-linecap="square" stroke-linejoin="miter" stroke-miterlimit="2" transform="matrix(1,0,0,1,0,0)"
>
</g>

<g fill="#000000" fill-opacity="1" stroke="#000000" stroke-opacity="1" stroke-width="1" stroke-linecap="square" stroke-linejoin="miter" stroke-miterlimit="2" transform="matrix(3.08152,0,0,3.08152,8,56.3229)"
>
</g>

<g fill="#000000" fill-opacity="1" stroke="#000000" stroke-opacity="1" stroke-width="1" stroke-linecap="square" stroke-linejoin="miter" stroke-miterlimit="2" transform="matrix(1,0,0,1,0,0)"
>
</g>

<g fill="#000000" fill-opacity="1" stroke="#000000" stroke-opacity="1" stroke-width="1" stroke-linecap="square" stroke-linejoin="miter" stroke-miterlimit="2" transform="matrix(1,0,0,1,0,0)"
>
</g>

<g fill="#000000" fill-opacity="1" stroke="#000000" stroke-opacity="1" stroke-width="1" stroke-linecap="square" stroke-linejoin="miter" stroke-miterlimit="2" transform="matrix(1,0,0,1,0,0)"
>
</g>

<g fill="#000000" fill-opacity="1" stroke="#000000" stroke-opacity="1" stroke-width="1" stroke-linecap="square" stroke-linejoin="miter" stroke-miterlimit="2" transform="matrix(1,0,0,1,0,0)"
>
</g>

<g fill="#000000" fill-opacity="1" stroke="#000000" stroke-opacity="1" stroke-width="1" stroke-linecap="square" stroke-linejoin="miter" stroke-miterlimit="2" transform="matrix(1,0,0,1,0,0)"
>
</g>

<g fill="#000000" fill-opacity="1" stroke="#000000" stroke-opacity="1" stroke-width="1" stroke-linecap="square" stroke-linejoin="miter" stroke-miterlimit="2" transform="matrix(1,0,0,1,0,0)"
>
</g>
</g>
</svg>
