<svg xmlns="http://www.w3.org/2000/svg" version="1.1" x="0" y="0" viewBox="0 0 330.9 110.5" xml:space="preserve"><title>Vox Media Go Deeper</title><path fill="#fff" d="M9.4 23.3l6.8 19.8 4.3-13.1c0.7-2.2 1.4-4.5 2.1-6.4h9.1l-9 22.2c-1.4 3.6-2.3 5.7-3.1 8.2l-6.9 0.5 -9-21.8c-1-2.7-2.4-6.2-3.7-8.9C0 23.7 9.4 23.3 9.4 23.3zM36 39.5c0-9.6 6.3-16.7 15.9-16.7 9.1 0 15 6.6 15 15 0 9.6-6.4 16.7-15.9 16.7C42 54.6 36 47.9 36 39.5zM58.6 38.8c0-5.7-2.9-9.3-7-9.3 -4.3 0-7.2 4.1-7.2 9 0 5.7 2.9 9.3 7 9.3C55.8 47.9 58.6 43.7 58.6 38.8zM71.7 53.9l10.5-15.5 -4.1-6.1 -5.8-8.6 9.4-0.3 6.2 9.7 2.1-3.6c1-1.7 2.6-4.2 3.7-5.8h9.3l-10 15 3.7 5.4c1.7 2.6 4.7 7 6.5 9.8l-9.6 0.3 -6.3-10.3 -2 3.3c-0.9 1.5-3 4.9-4.2 6.6h-9.4v0.1H71.7zM126 43.5l1.3-9.4c0.5-2.7 1-8.2 1.3-10.5l6.5-0.2c0.7 1.7 1.9 4.2 2.7 6.1l5.6 12.5 5.5-12.6c0.8-1.9 1.7-4.1 2.6-5.8h6.3c0.2 2.6 0.9 7.8 1.4 10.6l1.4 9.4c0.5 2.8 1.3 8.2 1.7 10.4l-8.5 0.3c-0.1-1.3-0.5-4.9-0.7-6.5l-1.3-9.6c-2.1 5.2-5.8 14.6-6.4 16.1l-4.5 0.1 -6.5-16 -1 9.2c-0.2 1.7-0.6 5-0.6 6.2h-8.5C124.8 51.6 125.6 46.3 126 43.5zM191.6 54c-2.9-0.2-6.3-0.2-9.7-0.2 -3.7 0-7.8 0.1-11.1 0.2 0.2-2.1 0.2-7.7 0.2-10.5v-9.4c0-2.7-0.1-8.5-0.2-10.6 3.1 0.1 6.5 0.2 10.5 0.2 3.5 0 6.9-0.1 9.8-0.2 -0.2 2.1-0.3 4.2-0.3 6.9 -2.2-0.1-4.3-0.1-7-0.1 -1.3 0-2.7 0-4 0.1 -0.1 0.6-0.1 1.5-0.1 1.9v3.4l9.3-0.1c-0.1 1.7-0.1 3.7-0.1 6.1h-9.2v3.8c0 0.5 0 1.4 0.1 2 1.3 0 2.7 0.1 4 0.1 3 0 5.7-0.1 8.2-0.1C191.8 49.2 191.6 51.3 191.6 54zM212.2 53.9h-11.3c0.2-2.1 0.2-7.6 0.2-10.4v-9.4c0-2.7-0.1-8.2-0.2-10.3 1.5 0 5.4-0.2 10.1-0.2 11.4 0 17.7 5.5 17.7 14.7C228.7 47.7 222.3 53.9 212.2 53.9zM211.9 30c-0.9 0-1.4 0.1-2.1 0.1 -0.1 0.6-0.1 1.4-0.1 1.9v13.4c0 0.6 0 1.2 0.1 1.7 0.7 0.1 1.3 0.1 2.2 0.1 5.7 0 8.2-3.7 8.2-8.9C220.3 33 217.2 30 211.9 30L211.9 30zM237.4 53.9c0.2-2.1 0.2-7.6 0.2-10.4v-9.4c0-2.7-0.1-8.3-0.2-10.4 1.7 0 7.7-0.1 9.2-0.2 -0.1 1.3-0.2 4.7-0.2 6.3v17.8c0 1.6 0.1 5 0.2 6.2h-9.2V53.9zM263.4 31.7c1.5-3.5 2.6-5.8 3.4-8.2l6.9-0.5 9.4 21.9c1 2.7 2.7 6.2 4 8.9l-9.2 0.3 -2.3-5.7H265c-0.6 1.4-1.7 4.9-2.1 5.4h-9L263.4 31.7zM266.7 43h6.9l-3.4-9.3L266.7 43z"/><path fill="#fff" d="M330.9 0v22L311.3 11 330.9 0zM290.2 0v22L309.8 11 290.2 0zM311.3 12.6v22l19.6-11L311.3 12.6zM309.8 12.6v22l-19.6-11L309.8 12.6z"/><path fill="#fff" d="M18 98.7v-3.1h7.3v1.6c0 5.2-3.4 8.5-8.2 8.5 -5.2 0-9.1-4-9.1-9.7 0-5.7 3.8-9.7 9-9.7 4.5 0 7.2 2.6 7.9 6.3h-4c-0.7-1.7-1.9-2.9-4-2.9 -3 0-5 2.6-5 6.2s1.9 6.2 5 6.2c2.4 0 4-1.4 4.3-3.6H18V98.7zM33.4 105.7c-4 0-6.6-2.9-6.6-7.1s2.7-7.1 6.6-7.1 6.6 2.9 6.6 7.1C40 102.8 37.3 105.7 33.4 105.7zM33.4 94.6c-1.9 0-2.9 1.6-2.9 4 0 2.2 1 4 2.9 4s2.9-1.6 2.9-4C36.3 96.3 35.2 94.6 33.4 94.6zM47.8 86.7h6.6c5.7 0 9.2 3.6 9.2 9.3s-3.6 9.3-9.2 9.3h-6.6V86.7zM54.4 101.9c3.6 0 5.5-2.3 5.5-5.9s-2-5.9-5.5-5.9h-2.6v11.9L54.4 101.9 54.4 101.9zM77.7 100.9c-0.5 2.9-2.7 4.8-6.1 4.8 -4 0-6.6-2.9-6.6-7.1 0-4.1 2.8-7.1 6.5-7.1 4 0 6.2 2.8 6.2 6.8v1.2h-9.1c0.1 2.1 1.3 3.3 2.9 3.3 1.3 0 2.2-0.6 2.6-1.7H77.7zM68.7 97h5.2c0-1.4-0.9-2.6-2.4-2.6C70.1 94.5 69 95.4 68.7 97zM91.4 100.9c-0.5 2.9-2.7 4.8-6.1 4.8 -4 0-6.6-2.9-6.6-7.1 0-4.1 2.8-7.1 6.5-7.1 4 0 6.2 2.8 6.2 6.8v1.2h-9c0.1 2.1 1.3 3.3 2.9 3.3 1.3 0 2.2-0.6 2.6-1.7H91.4zM82.6 97h5.2c0-1.4-0.9-2.6-2.4-2.6C84 94.5 82.9 95.4 82.6 97zM97.2 110.5h-3.7V91.8h3.7V93c0.6-0.7 2-1.4 3.4-1.4 4 0 6.2 3.3 6.2 7.1s-2.2 7.1-6.2 7.1c-1.5 0-2.8-0.7-3.4-1.4V110.5zM97.2 100.8c0.5 0.9 1.5 1.6 2.6 1.6 2.1 0 3.3-1.6 3.3-3.8 0-2.2-1.2-3.8-3.3-3.8 -1.2 0-2.1 0.7-2.6 1.6V100.8zM120.5 100.9c-0.5 2.9-2.7 4.8-6.1 4.8 -4 0-6.6-2.9-6.6-7.1 0-4.1 2.8-7.1 6.5-7.1 4 0 6.2 2.8 6.2 6.8v1.2h-9.1c0.1 2.1 1.3 3.3 2.9 3.3 1.3 0 2.2-0.6 2.6-1.7H120.5zM111.6 97h5.2c0-1.4-0.9-2.6-2.4-2.6C113 94.5 112 95.4 111.6 97zM130.8 95.4c-0.5-0.3-1.2-0.5-1.9-0.5 -1.3 0-2.3 0.7-2.6 1.9v8.5h-3.7V91.7h3.7v1.4c0.6-0.9 1.7-1.6 3-1.6 0.6 0 1.2 0.1 1.4 0.2V95.4zM132.5 100.8c1.4 0 2.3 1 2.3 2.4 0 1.4-1 2.4-2.3 2.4 -1.3 0-2.3-1-2.3-2.4C130.2 101.8 131.2 100.8 132.5 100.8z"/></svg>